<?xml version="1.0" standalone="no"?>
<!DOCTYPE svg PUBLIC "-//W3C//DTD SVG 20010904//EN"
 "http://www.w3.org/TR/2001/REC-SVG-20010904/DTD/svg10.dtd">
<svg version="1.0" xmlns="http://www.w3.org/2000/svg"
 width="670.000000pt" height="670.000000pt" viewBox="0 0 670.000000 670.000000"
 preserveAspectRatio="xMidYMid meet">
<metadata>
Created by potrace 1.14, written by Peter Selinger 2001-2017
</metadata>
<g transform="translate(0.000000,670.000000) scale(0.100000,-0.100000)"
fill="#000000" stroke="none">
<path d="M3140 6677 c-3 -3 -43 -7 -90 -11 -47 -3 -94 -7 -105 -10 -11 -2 -49
-7 -85 -11 -36 -4 -67 -8 -70 -10 -3 -2 -26 -6 -50 -10 -25 -4 -74 -13 -110
-22 -36 -8 -72 -16 -80 -18 -149 -31 -439 -135 -628 -225 -668 -320 -1197
-833 -1544 -1500 -160 -308 -298 -753 -334 -1075 -3 -33 -8 -62 -9 -65 -2 -3
-7 -64 -11 -135 -12 -211 -8 -452 11 -605 3 -19 7 -55 10 -80 5 -40 15 -99 30
-180 31 -166 116 -466 160 -565 7 -16 23 -55 35 -85 12 -30 32 -78 46 -108 13
-29 24 -54 24 -56 0 -18 236 -424 260 -446 3 -3 21 -27 40 -55 44 -64 34 -51
149 -190 348 -421 758 -723 1296 -955 95 -41 370 -131 445 -146 14 -3 43 -10
65 -16 45 -11 39 -10 155 -31 86 -16 132 -23 230 -33 30 -3 89 -9 130 -13 80
-9 472 -7 530 2 19 3 62 9 95 12 94 10 150 18 269 41 24 4 130 29 206 48 56
14 143 41 190 58 30 11 62 21 71 23 18 4 137 52 161 65 10 6 22 10 28 10 6 0
63 26 128 57 364 178 664 393 944 679 259 265 443 525 609 860 49 99 89 185
89 191 0 5 7 23 15 39 20 40 78 209 110 319 27 93 31 106 41 165 4 19 10 42
14 50 4 8 10 35 13 60 4 25 11 71 16 103 6 32 13 84 17 115 3 31 8 59 9 62 6
11 18 251 18 365 0 116 -9 308 -18 370 -3 17 -7 52 -10 80 -9 84 -45 263 -81
401 -207 797 -717 1499 -1419 1955 -333 217 -763 391 -1145 464 -14 3 -36 7
-50 10 -30 7 -196 32 -265 40 -62 8 -549 18 -555 12z m510 -391 c19 -3 58 -8
85 -11 66 -8 228 -36 236 -41 3 -2 19 -5 35 -8 16 -3 63 -15 104 -26 41 -11
84 -23 94 -25 46 -11 246 -84 320 -117 77 -34 323 -161 337 -174 8 -8 19 -14
23 -14 21 0 276 -185 391 -284 72 -62 240 -229 309 -307 257 -290 494 -729
606 -1118 103 -361 139 -797 95 -1146 -2 -16 -7 -50 -10 -75 -9 -74 -35 -210
-57 -295 -11 -44 -21 -84 -22 -90 -9 -40 -65 -207 -97 -288 -402 -1009 -1306
-1712 -2379 -1852 -194 -25 -601 -25 -731 0 -12 2 -40 6 -63 9 -34 4 -136 23
-221 40 -112 23 -359 102 -493 158 -395 164 -747 413 -1042 734 -133 145 -236
282 -353 470 -96 155 -264 529 -292 654 -2 8 -15 59 -30 113 -15 54 -28 108
-31 120 -23 120 -35 188 -40 235 -3 32 -7 59 -9 62 -5 8 -18 264 -18 350 0 82
11 280 18 320 2 14 9 60 15 103 23 160 59 314 101 443 18 55 34 104 35 109 3
15 63 164 90 223 13 29 24 55 24 58 0 3 9 19 21 35 11 16 18 29 15 29 -10 0
117 216 195 330 439 649 1165 1119 1924 1244 138 23 154 25 240 32 44 4 82 8
84 10 6 6 451 -4 491 -10z"/>
<path d="M3188 5635 c-1 -1 -34 -5 -73 -9 -78 -7 -117 -12 -190 -27 -27 -5
-59 -11 -70 -13 -49 -10 -157 -40 -236 -66 -729 -246 -1301 -859 -1489 -1600
-10 -41 -21 -86 -23 -100 -3 -14 -8 -36 -11 -50 -6 -27 -12 -67 -20 -142 -4
-27 -8 -69 -11 -94 -7 -59 -7 -278 0 -369 11 -139 32 -263 66 -392 11 -40 22
-80 24 -90 4 -21 50 -152 73 -208 33 -80 132 -274 167 -325 19 -28 35 -54 35
-57 0 -2 39 -57 87 -121 197 -267 495 -517 793 -667 212 -107 490 -199 666
-220 27 -3 59 -8 70 -10 112 -24 475 -24 614 0 194 33 252 46 376 84 645 198
1192 705 1442 1336 111 281 163 553 163 858 0 388 -121 844 -298 1125 -18 29
-33 55 -33 58 0 3 -23 40 -52 82 -124 185 -263 339 -452 500 -278 236 -710
435 -1061 487 -22 3 -52 8 -67 10 -99 18 -475 33 -490 20z m267 -989 c155 -10
283 -43 426 -107 77 -35 212 -110 229 -129 3 -3 28 -23 55 -44 48 -38 155
-143 203 -200 120 -142 242 -408 267 -581 3 -22 8 -58 12 -80 12 -85 6 -310
-11 -390 -34 -157 -66 -250 -122 -360 -153 -296 -409 -524 -714 -633 -172 -62
-260 -76 -465 -76 -139 0 -172 4 -325 39 -8 2 -44 13 -80 25 -418 144 -739
491 -845 915 -28 112 -36 173 -39 299 -16 687 515 1271 1204 1324 52 4 102 7
110 5 8 -1 51 -4 95 -7z"/>
<path d="M3258 4009 c-164 -25 -324 -114 -424 -238 -47 -58 -118 -194 -129
-246 -18 -84 -22 -128 -19 -210 6 -192 95 -367 249 -490 55 -44 181 -112 225
-120 10 -2 33 -7 51 -12 59 -16 200 -15 277 1 302 63 525 333 526 636 1 168
-30 272 -117 399 -138 201 -398 316 -639 280z"/>
</g>
</svg>
